Coordinates
version=1
nRows=9
nColumns=63
inDegrees=yes

Units are S.I. units (second, meters, Newtons, ...)
If the header above contains a line with 'inDegrees', this indicates whether rotational values are in degrees (yes) or radians (no).

endheader
time	pelvis_tilt	pelvis_list	pelvis_rotation	pelvis_tx	pelvis_ty	pelvis_tz	hip_flexion_r	hip_adduction_r	hip_rotation_r	knee_angle_r	knee_angle_r_beta	ankle_angle_r	subtalar_angle_r	mtp_angle_r	hip_flexion_l	hip_adduction_l	hip_rotation_l	knee_angle_l	knee_angle_l_beta	ankle_angle_l	subtalar_angle_l	mtp_angle_l	L5_S1_Flex_Ext	L5_S1_Lat_Bending	L5_S1_axial_rotation	L4_L5_Flex_Ext	L4_L5_Lat_Bending	L4_L5_axial_rotation	L3_L4_Flex_Ext	L3_L4_Lat_Bending	L3_L4_axial_rotation	L2_L3_Flex_Ext	L2_L3_Lat_Bending	L2_L3_axial_rotation	L1_L2_Flex_Ext	L1_L2_Lat_Bending	L1_L2_axial_rotation	L1_T12_Flex_Ext	L1_T12_Lat_Bending	L1_T12_axial_rotation	Abs_r3	Abs_r2	Abs_r1	Abs_t1	Abs_t2	neck_flexion	neck_bending	neck_rotation	arm_flex_r	arm_add_r	arm_rot_r	elbow_flex_r	pro_sup_r	wrist_flex_r	wrist_dev_r	arm_flex_l	arm_add_l	arm_rot_l	elbow_flex_l	pro_sup_l	wrist_flex_l	wrist_dev_l
      1.77500000	      0.15057908	     -0.07315521	     92.18588281	      0.22611257	      0.88499638	      0.67000109	      0.94052913	      0.25719140	     -4.27538535	      6.37548627	      0.11127323	     25.97460105	      6.55411114	      0.00000000	      0.57285974	     -0.43280463	      0.25443682	      5.71816339	      0.09980078	     19.97475213	     -4.39449551	      0.00000000	      0.14737230	     -0.12509438	      0.82676383	      0.27368511	     -0.16637552	      0.87843657	      0.24211796	     -0.30415447	      0.87843657	      0.16843181	     -0.30415447	      0.72341835	      0.13684992	     -0.25509246	      0.67174561	      0.08420853	     -0.19377119	      0.62007287	      1.05266563	     -1.41509262	      4.59821237	      0.00000000	      0.00000000	     10.18190841	      3.61953105	     -3.65562531	    -14.40461551	    -10.14818106	      8.63304163	     83.72000548	     83.14366875	      2.54984111	     17.02501295	    -11.05977742	    -21.62262034	     25.33905563	     94.32051716	     73.11305619	     23.69976861	     30.97436758
      1.80000000	      0.05601581	     -0.10601647	     91.87643084	      0.22669181	      0.88463176	      0.67005571	      1.08849326	      0.12465772	     -4.36705410	      6.66994347	      0.11641247	     26.15597857	      6.92241574	      0.00000000	      0.57376762	     -0.40237018	     -0.88327009	      5.67848970	      0.09910834	     20.23792591	     -2.97132532	      0.00000000	      0.14903949	     -0.14136906	      0.87071431	      0.27678124	     -0.18802085	      0.92513395	      0.24485698	     -0.34372473	      0.92513395	      0.17033724	     -0.34372473	      0.76187502	      0.13839807	     -0.28827979	      0.70745538	      0.08516117	     -0.21898067	      0.65303573	      1.06457420	     -1.59919508	      4.84265178	      0.00000000	      0.00000000	     10.10789250	      3.85768225	     -4.02428759	    -14.30210660	    -10.18724603	      9.19567013	     83.97658101	     83.45057431	      1.02458274	     14.79889639	    -10.90510137	    -22.01761381	     26.41759439	     93.99476693	     70.17794860	     23.95690893	     31.68806740
      1.82500000	      0.03087077	     -0.10053141	     91.48806118	      0.22733065	      0.88452090	      0.67056401	      1.30025691	      0.05706535	     -4.53004796	      7.08262010	      0.12361504	     26.38241770	      7.48404017	      0.00000000	      0.64088069	     -0.43040721	     -1.75250110	      5.82551133	      0.10167435	     20.48683028	     -2.20009314	      0.00000000	      0.13871806	     -0.14340661	      0.96690202	      0.25761331	     -0.19073080	      1.02733340	      0.22789990	     -0.34867884	      1.02733340	      0.15854087	     -0.34867884	      0.84603927	      0.12881359	     -0.29243477	      0.78560789	      0.07926350	     -0.22213685	      0.72517652	      0.99084924	     -1.62224431	      5.37761897	      0.00000000	      0.00000000	     10.13264137	      4.27554419	     -3.98328310	    -14.11438984	    -10.09263393	      9.18886038	     84.03265993	     83.96983443	      0.34622992	     13.34579697	    -10.40839836	    -22.17450089	     27.28090534	     93.63363481	     69.07062027	     23.59740722	     31.57975968
      1.85000000	      0.00284766	     -0.14957390	     91.31913559	      0.22747673	      0.88449800	      0.67092164	      1.52087526	     -0.00717053	     -4.73013164	      7.40907716	      0.12931279	     26.55291680	      7.73729590	      0.00000000	      0.64392438	     -0.30501434	     -0.03494827	      5.64517021	      0.09852681	     19.85138097	     -4.87735612	      0.00000000	      0.13816695	     -0.14515298	      1.02809323	      0.25658984	     -0.19305347	      1.09234906	      0.22699448	     -0.35292496	      1.09234906	      0.15791101	     -0.35292496	      0.89958158	      0.12830183	     -0.29599596	      0.83532575	      0.07894860	     -0.22484197	      0.77106992	      0.98691271	     -1.64199956	      5.71794613	      0.00000000	      0.00000000	     10.13719692	      4.49617767	     -4.11783369	    -13.91222062	     -9.98755222	      9.06100707	     83.97438955	     84.25120046	      0.18849821	     12.24715888	     -9.99438642	    -22.26601165	     28.01694434	     93.63169882	     69.06088895	     21.94149075	     31.17023790
      1.87500000	     -0.02365126	     -0.22383979	     91.03675623	      0.22788554	      0.88458351	      0.67145669	      1.79315562	     -0.03784064	     -4.50476552	      7.72337693	      0.13479836	     26.58929956	      7.61266777	      0.00000000	      0.76349718	     -0.30378517	     -0.49596657	      5.67358034	      0.09902266	     19.87450595	     -4.55441962	      0.00000000	      0.13822351	     -0.14621464	      1.07846102	      0.25669487	     -0.19446547	      1.14586484	      0.22708740	     -0.35550627	      1.14586484	      0.15797564	     -0.35550627	      0.94365339	      0.12835435	     -0.29816089	      0.87624958	      0.07898091	     -0.22648647	      0.80884577	      0.98731668	     -1.65400920	      5.99807667	      0.00000000	      0.00000000	     10.16320241	      4.59577068	     -4.01706343	    -13.52312366	     -9.92274662	      9.20071459	     83.76186277	     84.70301077	     -0.10633564	     10.97786860	     -9.73972491	    -22.29588703	     28.44007482	     93.73692312	     69.88107493	     20.81900293	     30.55037300
      1.90000000	     -0.09451068	     -0.29893962	     90.71810365	      0.22837152	      0.88472992	      0.67206036	      2.08104540	     -0.11460608	     -4.37711638	      8.01785006	      0.13993788	     26.59264542	      7.67161608	      0.00000000	      0.85725981	     -0.21895380	     -0.50498892	      5.63149848	      0.09828819	     19.62018498	     -5.08344517	      0.00000000	      0.13720315	     -0.15346088	      1.13014700	      0.25479996	     -0.20410297	      1.20078119	      0.22541105	     -0.37312479	      1.20078119	      0.15680947	     -0.37312479	      0.98887862	      0.12740684	     -0.31293743	      0.91824444	      0.07839788	     -0.23771091	      0.84761025	      0.98002835	     -1.73598019	      6.28553857	      0.00000000	      0.00000000	     10.25692021	      4.68480815	     -3.79389251	    -13.16337151	     -9.81649301	      9.44350730	     83.41268548	     84.97770417	     -0.60840774	      9.26977793	     -9.54971522	    -22.26144675	     28.63378674	     93.77204180	     70.92409213	     20.84050278	     29.83868558
      1.92500000	     -0.13076427	     -0.52038310	     90.70631720	      0.22843632	      0.88470643	      0.67255904	      2.44545776	     -0.15034394	     -4.37281106	      8.15981608	      0.14241566	     26.59398921	      7.63241726	      0.00000000	      1.21992485	     -0.20360929	     -0.67244863	      5.75913564	      0.10051588	     19.54075677	     -4.83767854	      0.00000000	      0.16697903	     -0.15730003	      1.13413049	      0.31009676	     -0.20920904	      1.20501364	      0.27432985	     -0.38245929	      1.20501364	      0.19084033	     -0.38245929	      0.99236418	      0.15505673	     -0.32076622	      0.92148102	      0.09541182	     -0.24365774	      0.85059786	      1.19271452	     -1.77940938	      6.30769353	      0.00000000	      0.00000000	     10.29962118	      4.57554891	     -3.68938541	    -12.96268218	     -9.76831145	      9.59711347	     83.24935294	     84.42542441	     -0.60935064	      9.03705193	     -9.40590719	    -22.19093487	     28.86134031	     93.78986352	     70.67836496	     20.57679760	     29.41340021
      1.95000000	     -0.36855090	     -0.45440432	     90.11238384	      0.22964427	      0.88497288	      0.67330649	      2.64775270	     -0.39225457	     -4.44650134	      8.46730879	      0.14778242	     26.79071838	      8.42713637	      0.00000000	      1.10856688	     -0.00397754	     -1.51545060	      5.57417863	      0.09728777	     19.42565465	     -4.53699982	      0.00000000	      0.13777582	     -0.19599784	      1.23815967	      0.25586347	     -0.26067712	      1.31554465	      0.22635189	     -0.47654914	      1.31554465	      0.15746398	     -0.47654914	      1.08338971	      0.12793862	     -0.39967879	      1.00600473	      0.07872510	     -0.30360065	      0.92861975	      0.98411887	     -2.21716672	      6.88627263	      0.00000000	      0.00000000	     10.42348084	      4.59180548	     -4.31806988	    -12.69902418	     -9.62859156	     10.04612187	     82.76988389	     84.83100016	     -1.60422022	      6.46412072	     -9.57556790	    -21.99734273	     28.27536330	     94.22824825	     72.34394381	     20.16335779	     28.19204826
      1.97500000	     -0.41185387	     -0.58332036	     90.17316548	      0.22976623	      0.88501720	      0.67408156	      2.85099525	     -0.39557096	     -4.38097732	      8.46244892	      0.14769760	     26.59464058	      8.13718509	      0.00000000	      1.36987093	      0.00530118	     -1.72598627	      5.58853795	      0.09753839	     19.57156524	     -4.16175626	      0.00000000	      0.15075083	     -0.20379073	      1.24024140	      0.27995937	     -0.27104167	      1.31775649	      0.24766854	     -0.49549678	      1.31775649	      0.17229312	     -0.49549678	      1.08521122	      0.13998722	     -0.41557005	      1.00769614	      0.08613902	     -0.31567184	      0.93018105	      1.07679811	     -2.30532148	      6.89785058	      0.00000000	      0.00000000	     10.40038170	      4.62934417	     -4.37096234	    -12.59432156	     -9.65818587	     10.21551202	     82.65197097	     83.55015248	     -1.64847843	      6.46283530	     -9.33020106	    -21.90649842	     28.31984310	     94.27008406	     72.11457638	     19.96609293	     27.20346608
